<?xml version="1.0" encoding="UTF-8" standalone="no"?>
<svg
   version="1.1"
   viewBox="0 0 851.52019 231.82685"
   id="svg6"
   sodipodi:docname="wordmark.svg"
   width="225.29805mm"
   height="61.337521mm"
   inkscape:version="1.3.2 (091e20e, 2023-11-25)"
   xmlns:inkscape="http://www.inkscape.org/namespaces/inkscape"
   xmlns:sodipodi="http://sodipodi.sourceforge.net/DTD/sodipodi-0.dtd"
   xmlns="http://www.w3.org/2000/svg"
   xmlns:svg="http://www.w3.org/2000/svg">
  <defs
     id="defs6" />
  <sodipodi:namedview
     id="namedview6"
     pagecolor="#ffffff"
     bordercolor="#000000"
     borderopacity="0.25"
     inkscape:showpageshadow="2"
     inkscape:pageopacity="0.0"
     inkscape:pagecheckerboard="0"
     inkscape:deskcolor="#d1d1d1"
     inkscape:zoom="0.88237615"
     inkscape:cx="449.9215"
     inkscape:cy="104.83058"
     inkscape:window-width="2112"
     inkscape:window-height="1212"
     inkscape:window-x="207"
     inkscape:window-y="89"
     inkscape:window-maximized="0"
     inkscape:current-layer="svg6"
     inkscape:document-units="mm" />
  <path
     d="m 31.68,151.488 q -9.216,0 -17.664,-3.264 Q 5.76,144.96 0,138.624 l 9.216,-12.096 q 5.376,5.184 10.56,7.68 5.376,2.304 10.176,2.304 5.376,0 9.216,-1.92 4.032,-2.112 4.032,-6.912 0,-3.84 -2.688,-5.952 Q 37.824,119.424 33.6,118.08 29.376,116.544 24.768,115.2 14.208,111.936 9.024,105.6 3.84,99.264 3.84,91.008 q 0,-6.336 3.264,-12.096 3.264,-5.952 9.792,-9.792 6.72,-3.84 17.088,-3.84 9.024,0 15.936,2.112 6.912,2.112 12.864,6.72 l -8.256,12.864 q -3.456,-3.264 -8.256,-4.992 -4.608,-1.92 -8.448,-2.112 -5.184,-0.192 -8.64,2.112 -3.456,2.304 -3.456,6.144 -0.192,3.84 2.496,6.144 2.88,2.304 7.296,3.648 4.416,1.344 8.832,2.88 8.832,2.88 14.592,8.256 5.76,5.184 5.76,14.592 0,7.488 -3.648,13.824 -3.648,6.336 -10.944,10.176 -7.296,3.84 -18.432,3.84 z m 63.55206,37.248 19.008,-42.24 -37.632,-77.952 h 24.192 l 24.192,53.76 24.192,-53.76 h 19.584 l -52.416,120.192 z m 110.59205,-120.192 1.536,14.592 q 4.224,-8.256 12.48,-13.056 8.256,-4.992 19.584,-4.992 11.328,0 18.816,6.912 7.68001,6.72 7.87201,17.472 V 149.76 H 244.60811 V 97.152 q -0.384,-6.144 -3.648,-9.792 -3.072,-3.84 -10.176,-4.032 -9.984,0 -16.512,8.64 -6.336,8.448 -6.336,21.696 v 36.096 h -21.504 V 68.544 Z m 97.72801,-35.712 h 21.504 v 35.712 h 21.12 V 85.44 h -21.12 v 64.32 h -21.504 V 85.44 h -14.016 V 68.544 h 14.016 z m 63.7439,116.928 V 0 h 21.12 v 82.56 q 4.224,-7.68 12.288,-12.48 8.256,-4.992 19.584,-4.992 11.328,0 18.816,6.912 7.68,6.72 7.872,17.472 v 60.288 h -21.504 V 97.152 q -0.384,-6.144 -3.648,-9.792 -3.072,-3.84 -10.176,-4.032 -9.984,0 -16.512,8.64 -6.336,8.64 -6.336,21.696 v 36.096 z m 128.64,-81.216 1.536,18.816 q 3.456,-6.912 9.408,-11.904 5.952,-5.184 12.096,-7.872 6.336,-2.688 10.368,-2.688 l -0.96,21.504 q -9.216,-0.768 -16.128,3.264 -6.72,4.032 -10.56,10.944 -3.648,6.72 -3.648,14.208 v 34.944 h -21.504 V 68.544 Z m 90.6241,83.328 q -14.4,0 -24.576,-5.568 -10.176,-5.568 -15.552,-15.36 -5.376,-9.984 -5.376,-22.464 0,-12.096 6.144,-21.888 6.144,-9.984 16.512,-15.744 10.368,-5.952 23.232,-5.952 16.704,0 27.456,9.792 10.944,9.6 14.592,27.264 l -62.4,21.12 q 6.912,10.368 20.352,10.368 4.992,0 9.408,-1.728 4.608,-1.728 8.832,-4.608 l 9.792,15.936 q -6.528,4.032 -14.016,6.528 -7.488,2.304 -14.4,2.304 z m -24.384,-44.544 q 0,1.536 0.192,3.264 l 42.624,-15.168 q -2.304,-5.376 -6.912,-9.408 -4.608,-4.224 -12.864,-4.224 -10.176,0 -16.704,7.104 -6.336,7.104 -6.336,18.432 z m 122.1122,44.544 q -11.52,0 -20.736,-4.8 -9.216,-4.8 -14.784,-14.208 -5.376,-9.408 -5.376,-23.616 0,-13.824 5.568,-23.616 5.76,-9.984 14.976,-15.36 9.408,-5.376 20.352,-5.376 11.328,0 18.24,4.416 7.104,4.224 11.328,10.176 l 1.536,-10.944 h 19.776 v 81.216 h -21.504 v -11.904 q -2.112,2.496 -6.144,5.76 -4.032,3.264 -9.984,5.76 -5.76,2.496 -13.248,2.496 z m 5.952,-17.664 q 8.64,0 14.784,-4.608 6.144,-4.608 8.64,-12.672 V 99.264 q -2.304,-7.488 -8.832,-12.096 -6.528,-4.608 -15.36,-4.608 -6.72,0 -12.288,3.264 -5.376,3.072 -8.832,9.024 -3.264,5.76 -3.264,13.248 0,7.296 3.456,13.248 3.456,5.952 9.024,9.408 5.76,3.456 12.672,3.456 z m 107.9039,17.664 q -11.52,0 -20.544,-5.376 -9.024,-5.376 -14.208,-15.168 -5.184,-9.984 -5.184,-23.424 0,-13.632 5.568,-23.232 5.568,-9.6 15.168,-14.592 9.6,-5.184 21.888,-5.184 8.832,0 16.704,3.456 8.064,3.264 12.672,9.024 V 0 h 21.312 v 149.76 h -21.504 v -10.944 q -5.952,5.76 -14.016,9.408 -7.872,3.648 -17.856,3.648 z m 6.912,-18.24 q 9.408,0 15.744,-4.608 6.528,-4.608 9.216,-12.864 V 98.88 q -2.304,-7.488 -9.216,-12.288 -6.72,-4.8 -15.744,-4.8 -6.912,0 -12.672,3.456 -5.568,3.264 -9.024,9.024 -3.456,5.76 -3.456,13.248 0,7.296 3.456,13.248 3.456,5.952 9.024,9.408 5.76,3.456 12.672,3.456 z"
     id="text1"
     style="font-weight:600;font-size:192px;font-family:'Josefin Sans';-inkscape-font-specification:'Josefin Sans Semi-Bold'"
     aria-label="synthread" />
</svg>
