<?xml version="1.0" encoding="UTF-8"?>
<svg id="Layer_1" data-name="Layer 1" xmlns="http://www.w3.org/2000/svg" xmlns:xlink="http://www.w3.org/1999/xlink" viewBox="0 0 2000 2300">
  <defs>
    <style>
      .cls-1 {
        fill: #fff;
      }

      .cls-2 {
        fill: #ddd;
      }

      .cls-2, .cls-3, .cls-4, .cls-5 {
        opacity: .75;
      }

      .cls-2, .cls-3, .cls-4, .cls-5, .cls-6 {
        isolation: isolate;
      }

      .cls-7 {
        fill: #e2e2e2;
        stroke: #000;
        stroke-miterlimit: 10;
        stroke-width: .5px;
      }

      .cls-8 {
        fill: #20c0e5;
      }

      .cls-3 {
        fill: url(#linear-gradient-2);
      }

      .cls-4 {
        fill: #b7b7b7;
      }

      .cls-5 {
        fill: #353535;
      }

      .cls-9 {
        fill: #4f4f4f;
      }

      .cls-10 {
        fill: #909393;
      }

      .cls-11 {
        fill: #191919;
      }

      .cls-6 {
        fill: url(#linear-gradient);
        opacity: .83;
      }
    </style>
    <linearGradient id="linear-gradient" x1="1000" y1="20" x2="1000" y2="1980" gradientTransform="translate(0 2000) scale(1 -1)" gradientUnits="userSpaceOnUse">
      <stop offset="0" stop-color="#000"/>
      <stop offset=".48" stop-color="#010101"/>
      <stop offset=".66" stop-color="#080808"/>
      <stop offset=".78" stop-color="#141213"/>
      <stop offset=".88" stop-color="#252223"/>
      <stop offset=".95" stop-color="#353132"/>
      <stop offset="1" stop-color="#393939"/>
    </linearGradient>
    <linearGradient id="linear-gradient-2" x1="791.53" y1="1757.34" x2="791.53" y2="1980" gradientTransform="translate(0 2000) scale(1 -1)" gradientUnits="userSpaceOnUse">
      <stop offset="0" stop-color="#000"/>
      <stop offset=".51" stop-color="#353132"/>
      <stop offset="1" stop-color="#848484"/>
    </linearGradient>
  </defs>
  <g id="Layer_3" data-name="Layer 3">
    <polygon class="cls-2" points="35.64 258 35.64 1810 72.88 1865.84 71.04 183.68 35.64 258"/>
    <polygon class="cls-5" points="149 20 71.04 183.68 72.88 1865.84 149 1980 149 20"/>
    <polygon class="cls-2" points="1964.36 258 1964.36 1810 1927.12 1865.84 1928.96 183.68 1964.36 258"/>
    <polygon class="cls-5" points="1851 20 1928.96 183.68 1927.12 1865.84 1851 1980 1851 20"/>
    <path class="cls-6" d="M1374.5,20V722.62c-.43,52.36,16.56,80.17,34.99,102.43,13.75,16.61,27.24,23.06,42.85,30.53,13.32,6.37,28.42,13.6,45.65,28.63,22.48,19.62,25.21,49.89,26.23,69.8h.29v711.33c-.18,10.67-2.47,20.53-6.82,29.33-14.17,28.69-49.67,45.85-92.7,44.84l-1211.98,.19v-1.6h-.49L208.56,20h-59.56V1980H1851V20h-476.5Z"/>
    <rect class="cls-9" x="1457" y="289.33" width="330.67" height="420" rx="70.67" ry="70.67"/>
    <rect class="cls-7" x="1506.33" y="406.33" width="233.33" height="269.33"/>
    <polygon class="cls-3" points="1374.5 228 1374.5 20 1371.5 20 211.56 20 208.56 20 209.07 242.66 209.07 228 1374.5 228"/>
    <path class="cls-4" d="M1524.21,954c-1.02-19.9-3.74-50.18-26.23-69.8-17.22-15.03-32.32-22.25-45.65-28.63-15.62-7.47-29.1-13.92-42.85-30.53-18.42-22.26-35.41-50.07-34.99-102.43V242.67H209.07l3.44,1495.43h.49v1.59l1211.98-.19c43.02,1.02,78.52-16.15,92.7-44.84,4.35-8.8,6.65-18.66,6.82-29.33V954h-.29Z"/>
    <polygon class="cls-10" points="1374.5 228 209.07 228 209.07 242.66 209.07 242.67 1374.5 242.67 1374.5 228"/>
    <g>
      <rect class="cls-11" x="1659" y="1668" width="56.67" height="24"/>
      <rect class="cls-1" x="1660.67" y="1669.54" width="53.33" height="7.9"/>
    </g>
  </g>
  <g>
    <path class="cls-8" d="M222.32,2167.71l-13.79,50.18h-45.7l59.65-195.46h57.84l60.85,195.46h-47.61l-15.03-50.18h-56.2Zm49.65-32.93l-12.17-41.54c-3.36-11.56-6.82-26.2-9.82-37.64h-.61c-2.87,11.5-5.82,26.33-8.95,37.69l-11.69,41.49h43.24Z"/>
    <path class="cls-8" d="M499.07,2012v163.5c0,16.11,.55,32.9,1.16,42.4h-39.23l-1.86-20.79h-.61c-8.93,15.92-26.12,23.98-44.43,23.98-33.49,0-60.58-28.77-60.58-72.88-.22-47.66,29.72-75.44,63.51-75.44,17.54,0,30.97,6.24,37.32,16.04h.58v-76.81h44.13Zm-44.13,124.2c0-2.47-.09-5.47-.58-8-2.51-11.84-12.14-21.57-25.58-21.57-20.23,0-30.46,17.93-30.46,40.29,0,23.89,11.77,38.98,30.15,38.98,12.55,0,22.85-8.69,25.53-21.14,.73-3.04,.94-6.45,.94-9.98v-18.58Z"/>
    <path class="cls-8" d="M567.65,2075.96l19.09,66.01c3.45,11.97,5.92,23.16,8.13,34.52h.94c2.18-11.71,4.61-22.32,7.85-34.52l18.21-66.01h46.4l-52.85,141.94h-44.03l-51.6-141.94h47.86Z"/>
    <path class="cls-8" d="M718.09,2161.12c1.32,18.31,19.41,27.01,40,27.01,14.92,0,27.15-2,39.06-6.02l5.95,29.86c-14.68,5.99-32.4,8.97-51.42,8.97-48.08,0-75.69-28-75.69-72.23,0-36.07,22.49-75.94,71.54-75.94,46,0,63.38,35.76,63.38,70.88,0,7.69-.8,14.21-1.58,17.47h-91.24Zm51.8-30.23c.08-10.62-4.67-28.77-24.75-28.77-18.65,0-26.2,17.03-27.42,28.77h52.17Z"/>
    <path class="cls-8" d="M837.21,2121.3c0-17.68-.55-32.62-1.16-45.34h38.27l2.04,19.67h.92c5.73-9.14,20.17-22.86,43.86-22.86,28.99,0,50.8,19.34,50.8,61.11v84.02h-44.19v-78.67c0-18.29-6.53-30.8-22.45-30.8-12.14,0-19.33,8.5-22.38,16.67-1.13,2.76-1.54,6.96-1.54,10.91v81.9h-44.19v-96.6Z"/>
    <path class="cls-8" d="M1054.62,2035.48v40.48h31.77v32.55h-31.77v51.43c0,17.12,4.25,25.01,17.41,25.01,5.69,0,10.08-.6,13.12-1.32l.35,33.53c-5.7,2.06-16.23,3.79-28.59,3.79-14.27,0-26.16-4.96-33.26-12.32-8.19-8.41-12.2-21.91-12.2-42.07v-58.05h-18.86v-32.55h18.86v-30.5l43.16-9.98Z"/>
    <path class="cls-8" d="M1245.52,2172.4c0,18.46,.55,33.69,1.16,45.49h-38.27l-2.03-20.03h-.92c-5.54,8.77-18.78,23.22-44.23,23.22-28.84,0-49.86-18.03-49.86-61.68v-83.46h44.19v76.28c0,20.77,6.67,33.2,22.22,33.2,11.99,0,19.1-8.32,21.94-15.53,1.11-2.58,1.61-5.83,1.61-9.37v-84.59h44.19v96.45Z"/>
    <path class="cls-8" d="M1280.89,2122.75c0-20.84-.38-34.56-1.16-46.79h37.92l1.61,26.27h1.08c7.29-20.76,24.56-29.46,38.31-29.46,4.07,0,6.14,.1,9.43,.82v41.5c-3.42-.72-6.98-1.24-11.93-1.24-16.21,0-27.28,8.6-30.25,22.41-.55,2.8-.82,6.24-.82,9.82v71.82h-44.19v-95.15Z"/>
    <path class="cls-8" d="M1422.79,2161.12c1.32,18.31,19.41,27.01,40,27.01,14.92,0,27.15-2,39.06-6.02l5.95,29.86c-14.68,5.99-32.4,8.97-51.42,8.97-48.08,0-75.69-28-75.69-72.23,0-36.07,22.49-75.94,71.54-75.94,46,0,63.38,35.76,63.38,70.88,0,7.69-.8,14.21-1.58,17.47h-91.24Zm51.8-30.23c.08-10.62-4.67-28.77-24.75-28.77-18.65,0-26.2,17.03-27.42,28.77h52.17Z"/>
    <path class="cls-8" d="M1541.89,2122.75c0-20.84-.38-34.56-1.16-46.79h37.92l1.61,26.27h1.08c7.29-20.76,24.56-29.46,38.31-29.46,4.07,0,6.14,.1,9.43,.82v41.5c-3.42-.72-6.98-1.24-11.93-1.24-16.21,0-27.28,8.6-30.25,22.41-.55,2.8-.82,6.24-.82,9.82v71.82h-44.19v-95.15Z"/>
    <path class="cls-8" d="M1713.08,2174.74c7.69,4.14,25.91,11.47,43.86,11.47,22.85,0,34.49-10.97,34.44-25.05-.09-18.68-18.55-27.13-38.01-27.19h-17.97v-31.64h17.21c14.76-.06,33.39-5.77,33.39-21.65,0-11.25-9.13-19.72-27.72-19.72-15.5,0-31.69,6.66-39.34,11.29l-9.05-31.78c11.39-7.32,33.88-14.28,58.31-14.28,40.31,0,62.56,21.16,62.56,47.05,0,19.8-11.38,35.62-34.45,43.72v.58c22.59,4.07,40.84,21.12,40.84,45.92,0,33.28-29.34,57.61-77.09,57.61-24.46,0-45.01-6.28-55.93-13.2l8.94-33.15Z"/>
  </g>
</svg>