<?xml version="1.0" encoding="UTF-8"?>
<svg xmlns="http://www.w3.org/2000/svg" xmlns:xlink="http://www.w3.org/1999/xlink" viewBox="0 0 2000 2000">
  <defs>
    <style>
      .cls-1, .cls-2 {
        fill: #3c4b5a;
      }

      .cls-1, .cls-3 {
        fill-rule: evenodd;
      }

      .cls-4 {
        fill: #fff;
      }

      .cls-5 {
        fill: #e2e2e2;
        stroke: #000;
        stroke-miterlimit: 10;
        stroke-width: .5px;
      }

      .cls-6 {
        fill: url(#linear-gradient-2);
      }

      .cls-6, .cls-7, .cls-8, .cls-9 {
        opacity: .75;
      }

      .cls-10 {
        fill: #4f4f4f;
      }

      .cls-7 {
        fill: #b7b7b7;
      }

      .cls-11 {
        fill: #909393;
      }

      .cls-8 {
        fill: #353535;
      }

      .cls-12 {
        fill: #191919;
      }

      .cls-9 {
        fill: #ddd;
      }

      .cls-3 {
        fill: #b12f35;
      }

      .cls-13 {
        fill: url(#linear-gradient);
        opacity: .83;
      }
    </style>
    <linearGradient id="linear-gradient" x1="1003" y1="1980" x2="1003" y2="20" gradientUnits="userSpaceOnUse">
      <stop offset="0" stop-color="#000"/>
      <stop offset=".48" stop-color="#010101"/>
      <stop offset=".66" stop-color="#080808"/>
      <stop offset=".78" stop-color="#141213"/>
      <stop offset=".88" stop-color="#252223"/>
      <stop offset=".95" stop-color="#353132"/>
      <stop offset="1" stop-color="#393939"/>
    </linearGradient>
    <linearGradient id="linear-gradient-2" x1="794.53" y1="242.66" x2="794.53" y2="20" gradientUnits="userSpaceOnUse">
      <stop offset="0" stop-color="#000"/>
      <stop offset=".51" stop-color="#353132"/>
      <stop offset="1" stop-color="#848484"/>
    </linearGradient>
  </defs>
  <g id="Layer_3" data-name="Layer 3">
    <polygon class="cls-9" points="38.64 258 38.64 1810 75.88 1865.84 74.04 183.68 38.64 258"/>
    <polygon class="cls-8" points="152 20 74.04 183.68 75.88 1865.84 152 1980 152 20"/>
    <polygon class="cls-9" points="1967.36 258 1967.36 1810 1930.12 1865.84 1931.96 183.68 1967.36 258"/>
    <polygon class="cls-8" points="1854 20 1931.96 183.68 1930.12 1865.84 1854 1980 1854 20"/>
    <path class="cls-13" d="M1377.5,20V722.62c-.43,52.36,16.56,80.17,34.99,102.43,13.75,16.61,27.24,23.06,42.85,30.53,13.32,6.37,28.42,13.6,45.65,28.63,22.48,19.62,25.21,49.89,26.23,69.8h.29v711.33c-.18,10.67-2.47,20.53-6.82,29.33-14.17,28.69-49.67,45.85-92.7,44.84l-1211.98,.19v-1.6s-.49,0-.49,0L211.56,20h-59.56V1980H1854V20h-476.5Z"/>
    <rect class="cls-10" x="1460" y="289.33" width="330.67" height="420" rx="70.67" ry="70.67"/>
    <rect class="cls-5" x="1509.33" y="406.33" width="233.33" height="269.33"/>
    <polygon class="cls-6" points="1377.5 228 1377.5 20 1374.5 20 214.56 20 211.56 20 212.07 242.66 212.07 228 1377.5 228"/>
    <path class="cls-7" d="M1527.21,954c-1.02-19.9-3.74-50.18-26.23-69.8-17.22-15.03-32.32-22.25-45.65-28.63-15.62-7.47-29.1-13.92-42.85-30.53-18.42-22.26-35.41-50.07-34.99-102.43V242.67H212.07l3.44,1495.43h.49s0,1.59,0,1.59l1211.98-.19c43.02,1.02,78.52-16.15,92.7-44.84,4.35-8.8,6.65-18.66,6.82-29.33V954h-.29Z"/>
    <polygon class="cls-11" points="1377.5 228 212.07 228 212.07 242.66 212.07 242.67 1377.5 242.67 1377.5 228"/>
    <g>
      <rect class="cls-12" x="1662" y="1668" width="56.67" height="24"/>
      <rect class="cls-4" x="1663.67" y="1669.54" width="53.33" height="7.9"/>
    </g>
  </g>
  <g id="svg40">
    <g>
      <path id="path2" class="cls-1" d="M262.24,824.31v219.26l407.19,399.36,180.11-7.83h125.29l383.7-391.53v-219.26h-15.66l-524.65,532.48L277.91,824.31h-15.66Z"/>
      <path id="path8" class="cls-1" d="M434.52,1425.71l-90.84,89.27,1.57,39.15v29.76l89.27,89.27h42.29v-1.57l-119.03-122.94,119.03-121.38v-1.57h-42.29Z"/>
      <g id="g17">
        <path id="path15" class="cls-3" d="M345.31,1499.27h0l-.07,42.33h17.23l114.33-115.89v22.4l-98.67,100.54,98.67,102.58v21.93l-114.33-117.46h-20.36c-3.13,0-6.26-3.13-6.26-6.26h-3.13v-51.68h3.13c0-1.57,1.57-3.13,4.7-3.13s4.7,1.57,4.7,3.13l.06,1.52Z"/>
      </g>
      <g id="path839">
        <rect id="rect12" class="cls-2" x="287.3" y="1425.71" width="48.55" height="247.45"/>
      </g>
      <rect id="rect23" class="cls-2" x="602.09" y="1505.58" width="37.59" height="167.58"/>
      <path id="path25" class="cls-2" d="M797.84,1587.74c0-17.06-3.84-30.32-11.53-39.8-7.69-9.48-20.06-14.21-37.12-14.21-3.58,0-7.32,.16-11.21,.47-3.9,.32-7.74,1-11.53,2.05v94.44c3.37,2.32,7.85,4.47,13.42,6.47,5.58,2,11.53,3,17.85,3,13.9,0,24.06-4.74,30.48-14.21,6.42-9.48,9.63-22.21,9.63-38.22h0Zm39.17-.63c0,12.63-1.63,24.21-4.9,34.74-3.26,10.53-7.95,19.58-14.06,27.16-6.11,7.58-13.74,13.48-22.9,17.69-9.16,4.21-19.53,6.32-31.11,6.32-7.79,0-14.95-.95-21.48-2.84-6.53-1.9-11.9-4-16.11-6.32v64.12h-38.22v-218.24c7.79-2.11,17.37-4.11,28.75-6,11.37-1.9,23.38-2.84,36.01-2.84s24.74,2,35.06,6c10.32,4,19.11,9.74,26.38,17.21s12.85,16.53,16.74,27.16c3.89,10.63,5.84,22.58,5.84,35.85h0Z"/>
      <path id="path27" class="cls-2" d="M987.35,1587.74c0-17.06-3.84-30.32-11.53-39.8-7.69-9.48-20.06-14.21-37.12-14.21-3.58,0-7.32,.16-11.21,.47-3.9,.32-7.74,1-11.53,2.05v94.44c3.37,2.32,7.84,4.47,13.42,6.47,5.58,2,11.53,3,17.85,3,13.9,0,24.06-4.74,30.48-14.21,6.42-9.48,9.64-22.21,9.64-38.22Zm39.17-.63c0,12.63-1.63,24.21-4.9,34.74-3.26,10.53-7.95,19.58-14.06,27.16-6.11,7.58-13.74,13.48-22.9,17.69-9.16,4.21-19.53,6.32-31.11,6.32-7.79,0-14.95-.95-21.48-2.84-6.53-1.9-11.9-4-16.11-6.32v64.12h-38.22v-218.24c7.79-2.11,17.37-4.11,28.75-6,11.37-1.9,23.38-2.84,36.01-2.84s24.75,2,35.06,6c10.32,4,19.11,9.74,26.38,17.21,7.26,7.47,12.85,16.53,16.74,27.16,3.89,10.63,5.84,22.58,5.84,35.85h0Z"/>
      <path id="path29" class="cls-2" d="M1056.27,1587.03c0-14.57,2.15-27.34,6.46-38.32,4.31-10.98,10.03-20.11,17.18-27.39,7.14-7.28,15.34-12.77,24.59-16.47,9.25-3.69,18.7-5.54,28.37-5.54,22.69,0,40.4,7.07,53.11,21.21,12.72,14.14,19.07,35.25,19.07,63.33,0,2.11-.05,4.49-.16,7.12-.11,2.64-.26,5.01-.47,7.13h-108.75c1.05,13.3,5.73,23.59,14.03,30.87,8.3,7.28,20.33,10.92,36.09,10.92,9.25,0,17.7-.85,25.37-2.53,7.67-1.69,13.71-3.48,18.12-5.38l5.04,31.35c-2.1,1.06-4.99,2.16-8.67,3.33-3.68,1.16-7.88,2.22-12.61,3.17-4.73,.95-9.82,1.74-15.29,2.37-5.46,.63-11.03,.95-16.71,.95-14.5,0-27.11-2.16-37.83-6.49-10.72-4.33-19.54-10.34-26.48-18.05-6.93-7.7-12.08-16.78-15.45-27.23-3.36-10.45-5.04-21.9-5.04-34.36Zm110.64-17.1c0-5.28-.74-10.29-2.21-15.04-1.47-4.75-3.63-8.87-6.46-12.35-2.84-3.48-6.3-6.23-10.4-8.23-4.1-2.01-8.98-3.01-14.66-3.01s-11.03,1.11-15.45,3.33c-4.41,2.22-8.14,5.12-11.19,8.71-3.05,3.59-5.41,7.71-7.09,12.35-1.68,4.64-2.84,9.39-3.47,14.25h70.92Z"/>
      <path id="path31" class="cls-2" d="M1339.41,1542.02c-3.14-1.06-7.49-2.16-13.04-3.32-5.55-1.16-11.99-1.74-19.32-1.74-4.19,0-8.64,.42-13.35,1.27-4.71,.84-8.01,1.58-9.9,2.22v132.72h-38.02v-157.74c7.33-2.75,16.49-5.33,27.49-7.76,11-2.43,23.2-3.64,36.61-3.64,2.51,0,5.45,.16,8.8,.47,3.35,.32,6.7,.74,10.06,1.27,3.35,.53,6.6,1.16,9.74,1.9,3.14,.74,5.66,1.42,7.54,2.06l-6.6,32.31Z"/>
      <path id="path35" class="cls-3" d="M620.89,1435.1h158.18v-101.8L262.24,824.31h93.97l462.01,454.18,446.35-454.18h93.97l-501.16,508.99v133.12c0,7.83-7.83,15.66-15.66,15.66h-220.82c-18.79,0-21.93-15.66-21.93-23.49s3.13-23.49,21.93-23.49Z"/>
      <rect id="rect12-6" class="cls-2" x="514.39" y="1425.71" width="37.59" height="247.45"/>
    </g>
  </g>
</svg>